<?xml version="1.0" standalone="no"?>
<!DOCTYPE svg PUBLIC "-//W3C//DTD SVG 20010904//EN"
 "http://www.w3.org/TR/2001/REC-SVG-20010904/DTD/svg10.dtd">
<svg version="1.0" xmlns="http://www.w3.org/2000/svg"
 width="225.000000pt" height="225.000000pt" viewBox="0 0 225.000000 225.000000"
 preserveAspectRatio="xMidYMid meet">

<g transform="translate(0.000000,225.000000) scale(0.100000,-0.100000)"
fill="#000000" stroke="none">
<path d="M814 2238 c-12 -5 -28 -24 -36 -41 -26 -54 -368 -855 -368 -861 0 -3
10 -6 23 -6 20 0 41 45 207 432 140 327 190 434 204 436 10 2 122 -40 248 -94
171 -73 234 -95 245 -88 9 5 15 14 15 18 -1 11 -480 216 -501 215 -9 0 -25 -5
-37 -11z"/>
<path d="M946 2114 c-9 -22 -94 -57 -125 -51 -26 6 -28 2 -183 -358 -88 -207
-148 -359 -139 -352 89 64 141 112 136 126 -14 36 -17 101 -6 134 15 45 78
102 128 116 52 15 91 14 148 -4 l48 -14 66 52 c36 28 98 77 136 108 l70 56 -3
50 -4 49 -121 52 c-67 29 -127 52 -134 52 -6 0 -14 -7 -17 -16z"/>
<path d="M1416 2018 c-30 -24 -237 -187 -459 -363 -384 -304 -403 -320 -371
-323 31 -3 70 25 464 338 237 187 436 343 443 345 6 3 17 1 23 -3 25 -17 334
-416 334 -432 0 -10 -59 -64 -144 -131 -142 -112 -144 -114 -111 -117 30 -3
49 9 154 92 134 107 156 133 147 172 -8 30 -329 440 -356 454 -35 19 -68 10
-124 -32z"/>
<path d="M1028 1627 l-367 -292 171 -3 c94 -1 172 -1 173 0 2 2 -4 30 -13 63
-18 70 -12 117 21 166 75 111 214 113 323 5 41 -42 56 -66 69 -111 9 -31 15
-72 13 -91 l-4 -34 54 0 c52 0 57 2 157 82 l102 81 -5 63 c-3 48 -1 69 12 88
9 14 16 30 16 36 0 6 -37 58 -82 115 -57 71 -88 102 -98 98 -42 -15 -88 -14
-125 3 -22 10 -42 19 -45 20 -3 1 -170 -129 -372 -289z"/>
<path d="M755 1626 c-11 -16 -22 -22 -35 -19 -15 4 -20 0 -20 -15 0 -11 7 -22
15 -26 9 -3 12 -12 8 -22 -6 -15 -4 -15 18 0 14 8 35 30 48 46 18 25 20 34 11
46 -17 20 -27 18 -45 -10z"/>
<path d="M1090 1528 c1 -18 -2 -49 -6 -70 -8 -50 23 -83 72 -74 19 3 50 9 69
12 29 6 35 4 35 -11 0 -10 -7 -27 -17 -37 -15 -17 -14 -18 20 -18 40 0 57 19
57 64 0 55 -66 82 -136 56 -18 -7 -30 -7 -40 1 -19 15 -7 37 32 57 31 16 33
19 20 37 -12 16 -18 18 -40 7 -16 -7 -28 -8 -31 -2 -14 23 -35 9 -35 -22z"/>
<path d="M275 1460 c-11 -4 -33 -22 -50 -40 l-30 -31 -3 -643 -2 -642 22 -35
c49 -73 1 -69 888 -69 737 0 797 1 829 18 71 35 76 52 79 258 l3 184 -197 0
c-181 0 -201 2 -242 21 -119 58 -133 223 -26 305 l37 29 214 3 213 3 0 176 c0
196 -8 230 -64 264 -30 18 -66 19 -826 19 -704 0 -798 2 -818 16 -43 30 -14
84 45 84 25 0 33 6 41 28 5 15 13 35 17 45 6 15 1 17 -51 16 -33 0 -68 -4 -79
-9z m69 -288 c3 -5 -4 -16 -16 -26 -25 -22 -49 -6 -28 19 14 16 36 20 44 7z
m121 -7 c0 -5 -19 -11 -42 -13 -34 -3 -43 0 -43 13 0 13 9 16 43 13 23 -2 42
-7 42 -13z m135 -1 c0 -12 -9 -14 -42 -12 -59 4 -63 28 -4 28 35 0 46 -4 46
-16z m135 1 c0 -5 -19 -11 -42 -13 -34 -3 -43 0 -43 13 0 13 9 16 43 13 23 -2
42 -7 42 -13z m135 0 c0 -11 -11 -15 -39 -15 -38 0 -57 10 -44 24 3 3 24 6 45
6 27 0 38 -4 38 -15z m138 3 c-3 -7 -23 -14 -46 -16 -33 -2 -42 0 -42 12 0 12
11 16 46 16 32 0 44 -4 42 -12z m132 -3 c0 -11 -11 -15 -39 -15 -38 0 -57 10
-44 24 3 3 24 6 45 6 27 0 38 -4 38 -15z m138 3 c-3 -8 -21 -13 -43 -13 -22 0
-40 5 -42 13 -3 8 9 12 42 12 33 0 45 -4 43 -12z m137 -3 c0 -11 -59 -19 -82
-11 -8 3 -11 11 -8 16 8 14 90 9 90 -5z m135 -1 c0 -12 -9 -14 -42 -12 -59 4
-63 28 -4 28 35 0 46 -4 46 -16z m135 1 c0 -5 -19 -11 -42 -13 -34 -3 -43 0
-43 13 0 13 9 16 43 13 23 -2 42 -7 42 -13z m135 0 c0 -11 -11 -15 -39 -15
-38 0 -57 10 -44 24 3 3 24 6 45 6 27 0 38 -4 38 -15z m80 -4 c6 -13 6 -22 0
-26 -11 -7 -51 25 -44 37 9 15 33 8 44 -11z m-1582 -113 c-2 -24 -7 -43 -13
-43 -5 0 -11 19 -13 43 -3 33 0 42 13 42 13 0 16 -9 13 -42z m1590 18 c5 -25
-6 -66 -18 -66 -6 0 -10 21 -10 46 0 32 4 44 13 42 6 -3 14 -13 15 -22z
m-1588 -152 c0 -32 -4 -44 -12 -42 -14 5 -23 51 -14 74 11 30 26 12 26 -32z
m1585 1 c0 -22 -5 -40 -12 -42 -9 -3 -13 9 -13 42 0 33 4 45 13 43 7 -3 12
-21 12 -43z m-1585 -141 c0 -32 -4 -44 -12 -42 -14 5 -23 51 -14 74 11 30 26
12 26 -32z m0 -129 c0 -33 -4 -45 -15 -45 -11 0 -15 11 -15 38 0 21 3 42 7 45
16 16 23 4 23 -38z m0 -141 c0 -32 -4 -44 -12 -42 -14 5 -23 51 -14 74 11 30
26 12 26 -32z m0 -135 c0 -28 -4 -39 -15 -39 -11 0 -15 11 -15 38 0 21 3 42 6
45 14 13 24 -6 24 -44z m1588 -6 c-5 -44 -28 -40 -28 5 0 21 3 42 7 46 11 11
25 -22 21 -51z m-1588 -129 c0 -32 -4 -44 -12 -42 -14 5 -23 51 -14 74 11 30
26 12 26 -32z m1585 1 c0 -22 -5 -40 -12 -42 -9 -3 -13 9 -13 42 0 33 4 45 13
43 7 -3 12 -21 12 -43z m-1564 -128 c-11 -11 -38 1 -45 20 -11 28 5 34 29 11
13 -13 20 -27 16 -31z m1563 38 c6 -16 -21 -48 -37 -42 -18 6 -20 27 -3 27 9
0 16 7 16 15 0 19 16 19 24 0z m-1439 -30 c0 -5 -19 -11 -42 -13 -34 -3 -43 0
-43 13 0 13 9 16 43 13 23 -2 42 -7 42 -13z m133 3 c-3 -8 -21 -13 -43 -13
-22 0 -40 5 -42 13 -3 8 9 12 42 12 33 0 45 -4 43 -12z m140 0 c-3 -8 -21 -13
-43 -13 -22 0 -40 5 -42 13 -3 8 9 12 42 12 33 0 45 -4 43 -12z m132 -3 c0
-11 -11 -15 -39 -15 -38 0 -57 10 -44 24 3 3 24 6 45 6 27 0 38 -4 38 -15z
m138 3 c-3 -8 -21 -13 -43 -13 -22 0 -40 5 -42 13 -3 8 9 12 42 12 33 0 45 -4
43 -12z m132 -3 c0 -11 -11 -15 -39 -15 -38 0 -57 10 -44 24 3 3 24 6 45 6 27
0 38 -4 38 -15z m138 3 c-3 -8 -21 -13 -43 -13 -22 0 -40 5 -42 13 -3 8 9 12
42 12 33 0 45 -4 43 -12z m137 -3 c0 -5 -19 -11 -42 -13 -34 -3 -43 0 -43 13
0 13 9 16 43 13 23 -2 42 -7 42 -13z m133 3 c-3 -8 -21 -13 -43 -13 -22 0 -40
5 -42 13 -3 8 9 12 42 12 33 0 45 -4 43 -12z m137 -3 c0 -5 -19 -11 -42 -13
-34 -3 -43 0 -43 13 0 13 9 16 43 13 23 -2 42 -7 42 -13z m133 3 c-3 -8 -21
-13 -43 -13 -22 0 -40 5 -42 13 -3 8 9 12 42 12 33 0 45 -4 43 -12z"/>
<path d="M1810 1410 l-35 -29 53 -1 c28 0 52 2 52 4 0 14 -21 56 -28 56 -4 0
-23 -13 -42 -30z"/>
<path d="M1605 766 c-104 -46 -113 -190 -16 -241 26 -13 67 -15 248 -13 l218
3 3 119 c2 78 -1 123 -9 132 -16 20 -400 20 -444 0z m96 -77 c45 -45 -3 -129
-65 -113 -35 8 -59 54 -47 88 19 47 76 61 112 25z"/>
</g>
</svg>
